<svg width="20" height="20" viewBox="0 0 20 20" fill="none" xmlns="http://www.w3.org/2000/svg">
<path d="M14.0125 3.28125H7.78125C7.36685 3.28125 6.96942 3.44587 6.6764 3.7389C6.38337 4.03192 6.21875 4.42935 6.21875 4.84375V13.375C6.21875 13.7894 6.38337 14.1868 6.6764 14.4799C6.96942 14.7729 7.36685 14.9375 7.78125 14.9375H14.0125C14.4269 14.9375 14.8243 14.7729 15.1174 14.4799C15.4104 14.1868 15.575 13.7894 15.575 13.375V4.83125C15.5717 4.41902 15.4056 4.02479 15.113 3.73447C14.8203 3.44414 14.4247 3.28124 14.0125 3.28125ZM14.6375 13.375C14.6375 13.5408 14.5717 13.6997 14.4544 13.8169C14.3372 13.9342 14.1783 14 14.0125 14H7.78125C7.61549 14 7.45652 13.9342 7.33931 13.8169C7.2221 13.6997 7.15625 13.5408 7.15625 13.375V4.83125C7.15625 4.66549 7.2221 4.50652 7.33931 4.38931C7.45652 4.2721 7.61549 4.20625 7.78125 4.20625H14.0125C14.1783 4.20625 14.3372 4.2721 14.4544 4.38931C14.5717 4.50652 14.6375 4.66549 14.6375 4.83125V13.375Z" fill="black"/>
<path d="M12.2094 15.7812H5.99375C5.82799 15.7812 5.66902 15.7154 5.55181 15.5982C5.4346 15.481 5.36875 15.322 5.36875 15.1562V6.63437C5.36875 6.51005 5.31937 6.39082 5.23146 6.30291C5.14355 6.21501 5.02432 6.16562 4.9 6.16562C4.77568 6.16562 4.65645 6.21501 4.56855 6.30291C4.48064 6.39082 4.43125 6.51005 4.43125 6.63437V15.1594C4.43125 15.5738 4.59587 15.9712 4.8889 16.2642C5.18192 16.5572 5.57935 16.7219 5.99375 16.7219H12.2094C12.3341 16.7219 12.4537 16.6723 12.5419 16.5841C12.6301 16.4959 12.6797 16.3763 12.6797 16.2516C12.6797 16.1268 12.6301 16.0072 12.5419 15.919C12.4537 15.8308 12.3341 15.7812 12.2094 15.7812Z" fill="black"/>
</svg>
