<svg width="12" height="12" viewBox="0 0 12 12" fill="none" xmlns="http://www.w3.org/2000/svg">
<path fill-rule="evenodd" clip-rule="evenodd" d="M1.936 1.93599C2.88836 0.983633 4.43715 0.983633 5.38951 1.93599L6.25274 2.79922L7.11597 1.93599L6.25274 1.07278C4.82237 -0.357592 2.50314 -0.357592 1.07277 1.07278C-0.357591 2.50314 -0.357591 4.82237 1.07277 6.25274L1.936 7.11597L2.79923 6.25274L1.936 5.38951C0.983646 4.43715 0.983646 2.88835 1.936 1.93599ZM10.9272 5.74726L10.064 4.88342L9.20077 5.74726L10.064 6.61049C11.0157 7.56224 11.0157 9.11165 10.064 10.064C9.11164 11.0158 7.56224 11.0158 6.61049 10.064L5.74726 9.20017L4.88342 10.064L5.74726 10.9272C7.17763 12.3576 9.49686 12.3576 10.9272 10.9272C12.3576 9.49686 12.3576 7.17763 10.9272 5.74726ZM3.23084 2.36761L9.63239 8.76856L8.76855 9.63239L2.36761 3.23084L3.23084 2.36761Z" fill="black"/>
</svg>
